<svg viewBox="0 0 255 100" xmlns="http://www.w3.org/2000/svg">
  <!-- Pixel Character (scaled 55%, centered vertically) -->
  <g transform="translate(10, 50) scale(0.55) translate(-20, -44)">
    <rect fill="#00D4FF" x="40" y="6" width="20" height="10"/>
    <rect fill="#00D4FF" x="30" y="16" width="40" height="10"/>
    <rect fill="#00D4FF" x="30" y="26" width="40" height="10"/>
    <rect fill="#07090F" x="33" y="27" width="8" height="8"/>
    <rect fill="#07090F" x="59" y="27" width="8" height="8"/>
    <rect fill="#00D4FF" opacity="0.9" x="35" y="29" width="4" height="4"/>
    <rect fill="#00D4FF" opacity="0.9" x="61" y="29" width="4" height="4"/>
    <rect fill="#00D4FF" x="20" y="36" width="60" height="10"/>
    <rect fill="#00D4FF" x="35" y="46" width="30" height="10"/>
    <rect fill="#00D4FF" opacity="0.65" x="35" y="56" width="30" height="8"/>
    <rect fill="#00D4FF" x="30" y="64" width="14" height="10"/>
    <rect fill="#00D4FF" x="56" y="64" width="14" height="10"/>
    <rect fill="#00D4FF" x="24" y="74" width="18" height="8"/>
    <rect fill="#00D4FF" x="58" y="74" width="18" height="8"/>
  </g>

  <!-- Wordmark -->
  <text x="58" y="63" font-family="'Chakra Petch', sans-serif" font-weight="600" font-size="36" letter-spacing="-0.5">
    <tspan fill="#FFFFFF">Gamer</tspan><tspan fill="#00D4FF">Dex</tspan>
  </text>
</svg>
